<svg width="106" height="143" viewBox="0 0 106 143" fill="none" xmlns="http://www.w3.org/2000/svg">
<path d="M13.1124 102.765L11.2858 102.243L0.780763 138.968L2.60742 139.491L13.1124 102.765Z" fill="#AFAEAE"/>
<path d="M28.411 102.771L26.5844 102.248L16.0793 138.974L17.906 139.496L28.411 102.771Z" fill="#AFAEAE"/>
<path d="M64.0538 139.634L65.8805 139.111L55.3755 102.386L53.5488 102.908L64.0538 139.634Z" fill="#AFAEAE"/>
<path d="M50.1891 139.629L52.0157 139.106L41.5107 102.381L39.6841 102.903L50.1891 139.629Z" fill="#AFAEAE"/>
<path d="M60.4896 125.483V123.583L5.5896 123.583V125.483L60.4896 125.483Z" fill="#AFAEAE"/>
<path d="M88.5 130.4C88.5 130.4 86 135.2 88.5 136.9C91 138.6 105.1 136.9 105.1 136.9C105.1 136.9 108.2 132.9 98.7 133.2C96.8 133.3 94.9 133.1 93.1 128.9C91.5 124.9 88.5 130.4 88.5 130.4Z" fill="#515151"/>
<path d="M41.5 125.9C41.5 125.9 36.4 127.5 36.9 130.5C37.4 133.5 48.7 142.3 48.7 142.3C48.7 142.3 53.7 141.6 46.8 135.2C45.4 133.9 44.2 132.4 45.9 128.2C47.5 124.1 41.5 125.9 41.5 125.9Z" fill="#515151"/>
<path d="M50.9001 49.7999C50.9001 49.7999 57.6001 64.7 62.4001 64.2C62.4001 64.2 81.4001 63 91.6001 59.7C91.6001 59.7 98.3001 58 100.9 60.9C103.5 63.8 105.9 51.4 91.4001 54.7L66.6001 58.4999L50.9001 42.2999C50.9001 42.2999 45.9001 44.3999 50.9001 49.7999Z" fill="#FACAB6"/>
<path d="M29.4 49.4999C29.4 49.4999 25.8 41.3999 14.4 40.3999C3.00003 39.3999 1.10005 47.9999 1.20005 52.2999C1.60005 65.0999 10.9 102.8 10.9 102.8H55.4V80.2999L29.4 49.4999Z" fill="url(#paint0_linear)"/>
<path d="M84.7001 90.8999C84.7001 90.8999 87.1001 95.6999 87.1001 97.9999C87.1001 100.3 93.8 131.6 93.8 131.6C93.8 131.6 91.4 133.7 89.3 131.6C87.2 129.5 74.8 92.7999 74.8 92.7999C74.8 92.7999 81.4001 87.2999 84.7001 90.8999Z" fill="#FACAB6"/>
<path d="M42.3 25.7999L41 30.3999C41 30.3999 46.3 28.9999 48.3 31.1999L47.7 22.8999C47.7 22.8999 41.4 24.7999 42.3 25.7999Z" fill="#FACAB6"/>
<path d="M41.0001 30.4C41.0001 30.4 23.7001 53.7 21.6001 69.2C21.6001 69.2 41.8001 69.1 43.7001 71.5C45.6001 73.9 48.2001 54.5999 48.2001 54.5999C48.2001 54.5999 53.4001 49.7 51.9001 43.2C50.3001 36.7 48.3001 30.7 48.3001 30.7C48.3001 30.7 42.0001 29.1 41.0001 30.4Z" fill="#F3F3F3"/>
<path d="M47.7001 42.2999L48.2001 54.4999L50.2001 46.2L47.7001 42.2999Z" fill="#C4C4C4"/>
<path d="M51.6001 49.1C51.6001 49.1 57.7001 63.4 61.9001 63.8C61.9001 63.8 53.7001 46.1 51.6001 49.1Z" fill="#F6BD9D"/>
<path d="M69.1001 63.5999L76.3 62.7999C76.3 62.7999 80.6001 58.7999 81.9001 56.2999L73.6001 57.2C73.6001 57.2 68.3001 62.4999 69.1001 63.5999Z" fill="#F6BD9D"/>
<path d="M50.3001 44.4C50.3001 44.4 59.0001 68.9 67.3001 64.7C75.6001 60.5 86.5001 43.1 86.5001 43.1C86.5001 43.1 95.1001 41.2 96.2001 39.1C97.3001 37 92.6001 35.4 90.0001 37.4C87.5001 39.5 89.9001 36.1 89.8001 35.4C89.7001 34.3 88.7001 33.2 86.4001 37.4C84.1001 41.6 71.5001 57.8 66.9001 57.3C62.3001 56.8 54.4001 36.6 54.4001 36.6C54.4001 36.6 49.6001 42.5 50.3001 44.4Z" fill="#FACAB6"/>
<path d="M41.2 30.3999C41.2 30.3999 51.1 26.2999 55.6 38.1999L51.1 47.8999C51.1 47.8999 46.2 36.5999 40 37.1999L41.2 30.3999Z" fill="#F3F3F3"/>
<path d="M78.9001 105.1L81.0001 111.1C81.0001 111.1 88.2001 104.9 87.9001 103.5C87.9001 103.5 87.5001 99.6999 86.8001 96.3999C86.2001 93.5999 84.2001 90.1999 84.2001 89.9999C84.2001 89.5999 76.3001 97.5999 78.9001 105.1Z" fill="#F6BD9D"/>
<path d="M70.4 96.7L71.9 100.2L40 126.9C40 126.9 40.5 129.3 44.8 128.6C49.1 127.9 83.4 104.8 84.8 98.0999C86.2 91.3999 77.4 88.2999 77.4 88.2999L70.4 96.7Z" fill="#FACAB6"/>
<path d="M21.6 67.0999C21.6 67.0999 11.6 85.8999 27.1 91.5999C42.6 97.2999 55 83.4999 61.9 100.2L84.8 90.8999C84.8 90.8999 71 64.6999 41.1 69.6999L21.6 67.0999Z" fill="#515151"/>
<path d="M42.1001 26.5999C42.1001 26.5999 45.6001 28.4999 47.9001 25.3999L47.7001 23.7C47.7001 23.8 42.3001 24.2999 42.1001 26.5999Z" fill="#F6BD9D"/>
<path d="M35.9001 15.1C35.9001 15.1 39.5001 31.0999 46.9001 25.2999C54.3001 19.5999 47.1001 11.7 49.0001 9.59996C49.0001 9.69996 33.6001 8.09996 35.9001 15.1Z" fill="#FACAB6"/>
<path d="M49.2001 13.4999L45.5001 14.2999L43.0001 11.9999V14.9999L38.4001 16.5999C38.4001 16.5999 37.2001 17 37.0001 17.7C36.9001 18.1 37.2001 19.0999 38.1001 19.3999C40.2001 20.1999 41.4001 25.7999 41.4001 25.7999C41.4001 25.7999 30.5001 20.5999 33.2001 11.9999C35.9001 3.39994 46.5001 6.29993 46.5001 6.29993C46.5001 6.29993 50.3001 5.89994 49.2001 13.4999Z" fill="#515151"/>
<path d="M36.1389 12.0312C38.0134 10.1567 37.7284 6.83266 35.5025 4.60669C33.2765 2.38073 29.9524 2.09579 28.0779 3.97029C26.2034 5.84479 26.4883 9.16889 28.7143 11.3949C30.9403 13.6208 34.2644 13.9057 36.1389 12.0312Z" fill="#515151"/>
<defs>
<linearGradient id="paint0_linear" x1="1.33345" y1="71.6584" x2="55.5371" y2="71.6584" gradientUnits="userSpaceOnUse">
<stop stop-color="#8AAFF4"/>
<stop offset="1" stop-color="#6392DD"/>
</linearGradient>
</defs>
</svg>
