<svg width="120" height="152" viewBox="0 0 120 152" fill="none" xmlns="http://www.w3.org/2000/svg">
<path d="M112.3 138.7C112.3 138.7 105.5 145.7 109.9 145.3C114.3 144.8 119.3 140.8 119.3 140.8C119.3 140.8 119.2 136.2 116.3 137.2C113.4 138.1 112.3 138.7 112.3 138.7Z" fill="#293692"/>
<path d="M111.4 134.3C111.4 134.3 112 140.6 113.7 140.2C115.3 139.9 116.3 139.2 116.3 139.2V132.4L111.4 134.3Z" fill="#FBD1BE"/>
<path d="M67.7 90.2C67.7 90.2 75.8999 105.2 93.7999 118.3L109.7 134.3H118.5L105.3 112.2C105.3 112.2 89.7999 72.1 81.2999 64.3C72.6999 56.5 67.7 90.2 67.7 90.2Z" fill="#7CBFE6"/>
<path d="M15.8999 9.39998C15.8999 9.39998 13.5999 8.49999 12.7999 6.29999C12.0999 4.19999 8.39996 -1.50002 3.19996 1.39998C-2.00004 4.39998 7.19996 7.09999 7.19996 7.09999L3.39994 7.69999C2.89994 7.79999 2.69995 8.39999 3.09995 8.69999C3.69995 9.19999 4.89996 9.69999 7.19996 9.49999C11.6 9.19999 13.7 13 13.7 13L15.8999 9.39998Z" fill="#FBD1BE"/>
<path d="M83.4999 68.3C83.9999 88.9 44.9999 115.9 44.9999 115.9L30.3999 141.5H24.3999C24.3999 141.5 29.5999 122.4 32.2999 111.5C34.9999 100.6 55.8999 70.3 55.8999 70.3C52.9999 74.6 74.5999 63.2 74.5999 63.2L83.4999 68.3Z" fill="#B5DEF9"/>
<path d="M38.3999 25.9L15.7999 9L12.7 12.1L38.9999 40.4L48.8999 34.3L38.3999 25.9Z" fill="#6793FF"/>
<path d="M36.7 32.2C36.7 32.2 48.7999 66 53.8999 85.1C53.8999 85.1 68.1999 68.1 80.9999 70.3C94.9999 72.7 56.8999 29.6 56.8999 29.6L36.7 32.2Z" fill="#5472FF"/>
<path d="M42.8 9L41.5 13.4L37.8 15.8C37.5 16 37.5 16.4 37.8 16.5L39.7 17.5L38.5 22C38.3 22.7 38.7 23.4 39.4 23.6L42.7 24.7L40.9 28.6L55.2 29.6L55.6 22.7L59.4 12.3L42.8 9Z" fill="#FBD1BD"/>
<path d="M46.6999 1.4C48.7999 1.6 49.3999 3.9 52.7999 5.9C56.2999 8 57.9999 7 60.1999 9C62.3999 11 62.3999 17.7 60.4999 20.7C57.4999 25.5 51.2999 26.9 50.5999 25.4C49.9999 24.1 54.4999 18.8 54.0999 16.2C53.4999 12.5 43.9999 13.2 42.7999 9C41.9999 6 44.0999 1.1 46.6999 1.4Z" fill="#293692"/>
<path d="M43.5 37.8C48.7 34.3 53.7 30.4 57.2 32.3C60.8 34.2 63.1 39.9 61.9 43.7C59.4 51.6 37.2 53.5 31.5 53.8C30.7 53.8 30 53.6 29.4 53.1C25.2 49.4 10.1 36.9 9.09998 34.5L12.7 32.3L31.1 44.5C31.1 44.5 40.3 40 43.5 37.8Z" fill="#7E8BFF"/>
<path d="M9.09995 34.5C9.09995 34.5 8.09994 32.2 5.99994 31.5C3.89994 30.8 -1.90007 27.4 0.899933 22.1C3.69993 16.8 6.69995 26 6.69995 26L7.19995 22.2C7.29995 21.7 7.89995 21.5 8.19995 21.9C8.69995 22.5 9.19995 23.7 9.09995 26C8.89995 30.4 12.7 32.4 12.7 32.4L9.09995 34.5Z" fill="#FBD1BE"/>
<path d="M24.3999 146C24.3999 146 15.4999 150.1 19.7999 151.3C24.0999 152.5 30.0999 150.5 30.0999 150.5C30.0999 150.5 31.5999 146.2 28.5999 146C25.6999 145.8 24.3999 146 24.3999 146Z" fill="#293692"/>
<path d="M25.1999 141.5C25.1999 141.5 23.4999 147.6 25.1999 147.9C26.8999 148.2 27.9999 147.9 27.9999 147.9L30.3999 141.5H25.1999Z" fill="#FBD1BE"/>
<path d="M37.1 26.5C35.5 27.7 35.5 30.5 36.7 32.2C40 37.2 54.9 37.1 60.9 31C62.8 29.1 61.8 26.7 60.7 26.1C57.9 24.9 58.9 27.3 53.2 27.9C44.9 29 39.9 24.3 37.1 26.5Z" fill="#FEF6D8"/>
<path d="M54 34.7C54 34.7 56.8 55.2 71.9 61L74.7 57.9C74.7 57.9 57.5 43.6 58.9 31.8L54 34.7Z" fill="#FEF6D8"/>
<path d="M61.1 29.3C61.1 29.3 67.7 36 76.4 39.4V49.5C76.4 49.5 62.9 43.3 59 31.7L61.1 29.3Z" fill="#FEF6D8"/>
</svg>
